# xmcd
#
# Track frame offsets: 
#        150
#        24487
#        45675
#        72190
#        93097
#        115165
#        143750
#        164522
#        186482
#        206120
#        220940
#
# Disc length: 3529 seconds
#
# Revision: 1
# Processed by: cddbd v1.5.2PL0 Copyright (c) Steve Scherf et al.
# Submitted via: ExactAudioCopy v1.0b3
#
DISCID=a00dc70b
DTITLE=Friedemann - Short Stories
DYEAR=2003
DGENRE=Instrumental
TTITLE0=The Lady From Yonder Hill
TTITLE1=One Summer Eve
TTITLE2=Three Little Ghosts
TTITLE3=Once In The Black Forest
TTITLE4=The Samurai Who Decided To Die
TTITLE5=The Rusty Knight
TTITLE6=The Queen Bee
TTITLE7=The Little Lioness
TTITLE8=The Sleeping Princess
TTITLE9=The Last Waltz
TTITLE10=He Who Walks Alone
EXTD=YEAR: 2003
EXTT0=
EXTT1=
EXTT2=
EXTT3=
EXTT4=
EXTT5=
EXTT6=
EXTT7=
EXTT8=
EXTT9=
EXTT10=
PLAYORDER=
